<?xml version="1.0" standalone="no"?><!DOCTYPE svg PUBLIC "-//W3C//DTD SVG 1.1//EN" "http://www.w3.org/Graphics/SVG/1.1/DTD/svg11.dtd"><svg t="1634623082973" class="icon" viewBox="0 0 1302 1024" version="1.1" xmlns="http://www.w3.org/2000/svg" p-id="1603" xmlns:xlink="http://www.w3.org/1999/xlink" width="254.296875" height="200"><defs><style type="text/css"></style></defs><path d="M1102.74125247 281.51455108l-140.1388322-96.24961944 82.02874714-94.48638464L1184.73166912 187.02816644l-81.99041666 94.48638465zM1053.40901011 167.40259665l-7.6279062 7.05293921 45.15414229 30.28164038 5.48136008-6.82295141-43.00759617-30.51162818z m42.50929094 115.07023443l-300.63152803 350.11709473-0.65163042 0.19165568-147.84340183 44.04253792 3.75645657-48.45062494H388.32452281c-17.97732806 0-30.51162735-11.69101318-30.51162735-28.3650812s12.53429929-28.32674991 30.51162735-28.32674991h266.67009284l2.98983306-37.98620919 0.42164265-0.49830607 36.68294998-42.12597794H386.17797585c-17.97732806 0-30.54995865-11.65268188-30.54995865-28.3267499 0-16.71239932 12.57263059-28.36508121 30.54995865-28.36508121h330.52985623c8.39453055 0 15.86911323 2.6065209 21.3504733 7.39792008l221.93759399-254.74909269 137.37898691 93.71976115-1.45658524 1.72490349z m-126.8762407-18.74395239l-252.06590917 291.89201579-5.05971745 44.31085701 47.91398841-14.02921582 251.87425268-294.19188793-42.66261447-27.98176905z m-589.41871765 33.38646735h380.59039078c17.97732806 0 30.54995865 11.65268188 30.54995947 28.32674908 0 17.51735412-15.86911323 28.36508121-30.54995947 28.36508121H379.6233427c-17.97732806 0-30.54995865-11.65268188-30.54995865-28.36508121 0-16.67406802 12.57263059-28.32674991 30.54995865-28.32674908z m510.68645151-59.75832678a28.32674991 28.32674991 0 0 1-20.4305246-8.54785493c-77.54399836-56.61516852-178.50835437-87.97008198-284.03412176-87.97008279-231.59705329 0-420.03318604 149.56830532-420.03318603 333.36636493 0 112.23372574 70.79770871 216.30290872 189.39441274 278.32277472a25.29858554 25.29858554 0 0 1 13.83755933 22.0404342v86.62849064l14.52752105-8.89283579s1.60990961-1.30326086 2.87483918-1.9548913l79.0005844-48.91059887a28.59506818 28.59506818 0 0 1 20.69884288-3.67979398c33.80810998 6.47797137 67.34790171 9.77445319 99.73775775 9.77445319 231.59705329 0 420.03318604-149.52997403 420.03318603-333.32803281 0-13.68423496-1.03494177-27.4451325-3.14315744-40.93771178a23.57368204 23.57368204 0 0 1-0.72829304-5.71134788c0-14.02921582 12.26598101-25.41357944 27.33013945-25.41357861 14.22087149 0 26.21853425 10.31109054 27.25347601 23.49701943 2.5298583 16.02243759 3.83311917 32.46651865 3.83311917 48.64228062 0 211.58817215-212.85310089 383.81021081-474.50180758 383.88687341-32.31319345 0-65.77632339-2.95150177-99.5077708-8.81617319L419.5261119 890.71216289a17.86233499 17.86233499 0 0 1-2.95150177 2.06988438l-59.75832596 36.60628657a28.32674991 28.32674991 0 0 1-14.94916452 4.21643133h-0.07666178a27.33013861 27.33013861 0 0 1-12.99427404-3.10482614 24.9152742 24.9152742 0 0 1-14.29753409-22.1937594v-119.21000317C190.76556648 719.29507822 114.86980904 604.99146811 111.42000203 483.09828225v-17.93899676c2.95150177-100.58104386 53.66366675-194.79911023 142.89867829-265.36683278 89.27334284-70.60605305 207.02675994-109.51221176 331.56479882-109.51221178 119.55498321 0 233.89692461 36.26130652 321.90533871 102.11429169l1.68657221 1.26492957-0.0766626 0.11499389a24.60862463 24.60862463 0 0 1 8.24120618 18.20731504c0 13.99088453-12.22764972 25.37524814-27.33013944 25.37524814z" p-id="1604"></path></svg>