<?xml version="1.0" standalone="no"?><!DOCTYPE svg PUBLIC "-//W3C//DTD SVG 1.1//EN" "http://www.w3.org/Graphics/SVG/1.1/DTD/svg11.dtd"><svg t="1630549094770" class="icon" viewBox="0 0 1024 1024" version="1.1" xmlns="http://www.w3.org/2000/svg" p-id="12187" xmlns:xlink="http://www.w3.org/1999/xlink" width="200" height="200"><defs><style type="text/css"></style></defs><path d="M64 0h896v64H64zM64 960h384v64H64z" p-id="12188"></path><path d="M128 0v1024H64V0zM960 0v512h-64V0zM192 128.44h640v64H192zM192 256.44h512v64H192zM192 384.22h384v64H192zM192 832h128v64H192zM736 761.33l-56 42.78 21.39 69.22h69.22L792 804.11z" p-id="12189"></path><path d="M736 636.4l168.25 128.53L839.03 976H632.97l-65.22-211.06L736 636.4m0-60.4L512 747.12 597.56 1024h276.88L960 747.12 736 576z" p-id="12190"></path></svg>