<?xml version="1.0" standalone="no"?><!DOCTYPE svg PUBLIC "-//W3C//DTD SVG 1.1//EN" "http://www.w3.org/Graphics/SVG/1.1/DTD/svg11.dtd"><svg t="1630549418211" class="icon" viewBox="0 0 1024 1024" version="1.1" xmlns="http://www.w3.org/2000/svg" p-id="13534" xmlns:xlink="http://www.w3.org/1999/xlink" width="200" height="200"><defs><style type="text/css"></style></defs><path d="M947.265 421.144c-4.821-25.296-20.076-41.523-38.672-41.11h-3.875c-63.898 0-115.883-51.61-115.883-115.046 0-20.908 10.01-43.824 10.085-43.992 9.866-22.061 2.276-49.123-17.665-62.929l-1.096-0.758-111.43-61.474-1.17-0.507c-6.604-2.845-13.85-4.286-21.54-4.286-15.857 0-31.431 6.289-41.621 16.794-13.611 13.945-56.507 50.137-91.11 50.137-34.932 0-78.097-36.926-91.753-51.117-10.25-10.719-25.933-17.124-41.944-17.124-7.54 0-14.657 1.395-21.151 4.146l-1.2 0.502-115.37 62.915-1.135 0.79c-19.986 13.782-27.611 40.831-17.76 62.85 0.1 0.237 10.105 23.158 10.105 44.052 0 63.436-51.98 115.046-115.878 115.046h-3.875c-18.626-0.442-33.851 15.814-38.677 41.11-0.373 2.008-9.328 49.393-9.328 86.724 0 37.345 8.955 84.725 9.333 86.719 4.766 24.985 19.662 41.133 37.965 41.133 0.234 0 0.468-0.009 0.707-0.009h3.875c63.898 0 115.878 51.61 115.878 115.046 0 20.894-10.01 43.829-10.08 43.992-9.861 22.047-2.291 49.105 17.615 62.934l1.081 0.748 109.323 60.688 1.155 0.511c6.584 2.873 13.8 4.323 21.45 4.323 16.057 0 31.7-6.536 41.855-17.501 12.814-13.829 57.433-53.307 93.152-53.307 35.963 0 79.9 39.255 93.765 54.348 10.18 11.151 25.938 17.808 42.154 17.808h0.005c7.49 0 14.577-1.404 21.062-4.184l1.18-0.507L780.11 858.43l1.116-0.767c19.951-13.805 27.556-40.859 17.715-62.864-0.105-0.223-10.105-23.149-10.105-44.043 0-63.436 51.985-115.05 115.883-115.05h3.87c18.607 0.377 33.851-15.809 38.677-41.119 0.378-1.994 9.323-49.374 9.323-86.719-0.001-37.331-8.946-84.716-9.324-86.724z m-51.377 162.677c-88.75 4.579-159.54 77.701-159.54 166.935 0 29.838 11.689 58.443 14.239 64.333L644.72 873.184h-0.164c-1.504 0-2.938-0.558-3.441-0.892-1.907-2.05-17.222-18.389-39.31-34.667-32.93-24.278-64.281-36.592-93.172-36.592-28.627 0-59.734 12.081-92.475 35.899-21.963 15.986-37.218 32.013-39.121 34.049-0.508 0.325-1.922 0.865-3.411 0.865-0.085 0-0.159-0.005-0.229-0.005l-102.092-56.682c2.505-5.773 14.269-34.472 14.269-64.402 0-89.234-70.791-162.356-159.54-166.935-1.28-7.024-8.218-46.395-8.218-75.953 0-29.549 6.938-68.939 8.218-75.944 88.745-4.579 159.54-77.701 159.54-166.935 0-29.782-11.644-58.341-14.229-64.305l107.879-58.829c0.1 0 0.229-0.005 0.369-0.005 1.793 0 3.466 0.66 4.024 1.037 1.753 1.818 16.918 17.306 38.732 32.743 32.307 22.86 62.907 34.453 90.941 34.453 27.765 0 58.121-11.365 90.219-33.789 21.684-15.14 36.78-30.349 38.528-32.125 0.548-0.367 2.211-1.009 3.984-1.009 0.174 0 0.314 0.005 0.433 0.019l104.149 57.439c-2.535 5.852-14.254 34.495-14.254 64.37 0 89.234 70.791 162.356 159.54 166.935 1.28 7.024 8.213 46.395 8.213 75.953-0.002 29.563-6.94 68.939-8.214 75.944zM509.005 354.078c-85.089 0-154.321 68.735-154.321 153.218 0 84.474 69.232 153.209 154.321 153.209 85.094 0 154.321-68.735 154.321-153.209 0-84.483-69.227-153.218-154.321-153.218z m0 254.314c-56.148 0-101.833-45.358-101.833-101.096 0-55.747 45.685-101.101 101.833-101.101 56.148 0 101.833 45.354 101.833 101.101 0 55.738-45.685 101.096-101.833 101.096z" p-id="13535"></path></svg>