<?xml version="1.0" standalone="no"?><!DOCTYPE svg PUBLIC "-//W3C//DTD SVG 1.1//EN" "http://www.w3.org/Graphics/SVG/1.1/DTD/svg11.dtd"><svg t="1634801487423" class="icon" viewBox="0 0 1024 1024" version="1.1" xmlns="http://www.w3.org/2000/svg" p-id="1285" xmlns:xlink="http://www.w3.org/1999/xlink" width="200" height="200"><defs><style type="text/css"></style></defs><path d="M626.264724 111.087666c-151.96024-61.335258-326.294281 8.710895-389.382277 156.500464s8.964303 317.31942 160.924543 378.728589 326.262605-8.721453 389.382277-156.500464a282.760925 282.760925 0 0 0 22.775031-111.37275c-0.010559-117.04275-72.506321-222.566002-183.699574-267.355839z" p-id="1286"></path><path d="M898.857659 336.134953C875.903132 146.892083 711.156354 0 511.998902 0S148.041879 146.944876 125.150703 336.134953C75.852318 347.242664 45.158292 395.105071 56.572204 443.041389c9.61894 40.386876 46.616486 68.979728 89.241798 68.990287 6.873688 0 16.028046-2.238436 22.891175-2.238436v-131.349735c0-184.407003 153.69186-333.907076 343.378194-333.907076s343.283166 149.500072 343.283166 333.907076v131.349735c6.873688 0 16.017488 2.238436 22.901734 2.238436 50.491514-0.15838 91.385206-39.932854 91.543586-89.041183 0.295642-41.569446-29.247489-77.732858-70.954198-86.85554zM731.355071 635.684148c-59.297437 48.569838-135.48873 76.68755-218.95494 76.68755-96.199955 0-180.880411-37.842239-242.690809-97.963251C163.256909 688.350745 100.211147 807.80087 100.380086 935.01161v28.888495c2.270112 33.386484 34.326205 60.099895 68.631292 60.099895h562.459838c-96.675094-112.375822-96.70677-275.94003-0.084469-388.347528z" p-id="1287"></path><path d="M292.611057 635.652472c96.622301 112.407498 96.590625 275.971706-0.08447 388.347528H854.954749c34.336764 0 66.392856-26.713411 68.631293-60.099895v-28.888495c0.211173-127.21074-62.876823-246.660865-169.329237-320.603163-61.810398 60.121012-146.490854 97.963251-242.690808 97.963251-83.46621 0-159.657503-28.13883-218.95494-76.68755z" p-id="1288"></path></svg>