<?xml version="1.0" standalone="no"?><!DOCTYPE svg PUBLIC "-//W3C//DTD SVG 1.1//EN" "http://www.w3.org/Graphics/SVG/1.1/DTD/svg11.dtd"><svg t="1630549552158" class="icon" viewBox="0 0 1024 1024" version="1.1" xmlns="http://www.w3.org/2000/svg" p-id="13890" xmlns:xlink="http://www.w3.org/1999/xlink" width="200" height="200"><defs><style type="text/css"></style></defs><path d="M516.02678405 28.17645118l159.1463069 322.46479276 355.86137871 51.70878485-259.76722991 250.69635938 59.92826312 356.50675967-319.48674824-171.38208884-320.00542112 168.46329399 62.12510712-357.94427915L1.02001158 397.53338008l355.28983415-49.32507397z" fill="#F0D39B" p-id="13891"></path><path d="M798.96570429 969.65536198l-288.77286329-154.10906227-290.66251266 150.51662832 57.33215874-322.26242606-232.97029173-229.92479092 324.20677139-45.05808983 146.67898903-292.61779591 143.03824337 294.41355524 323.6233777 49.07713108-235.80431021 227.01784518z" fill="#EE100F" p-id="13892"></path><path d="M514.77795577 76.19982531v483.99663286l143.03824337-189.58216643z" fill="#940000" p-id="13893"></path><path d="M514.77795577 560.19554699l466.66070989-140.50503536-235.80339903 227.01693402zM798.96570429 969.65536198l-284.18774852-409.45890381-4.58511477 255.34984154zM219.53032834 966.06201689l295.24762743-405.8664699-237.91546869 83.60586613z" fill="#940000" p-id="13894"></path><path d="M43.89219535 413.87571105l470.88576042 146.31983594-146.67898903-191.37883897z" fill="#940000" p-id="13895"></path><path d="M444.84903971 602.54358881l-43.21310757-10.0079463 63.17795291-191.08258223 42.11924136 8.37900013-62.0840867 192.7115284z m154.25308634-0.93160677l-72.47761985-190.85013715 41.29884269-9.7755012 74.11841717 190.38433377-42.93964001 10.24130458zM407.65400852 701.69144293H635.47766975v32.5843918H407.65400852z" fill="#C94C3E" p-id="13896"></path><path d="M432.54124373 593.00053476l-43.21219441-10.00794629 63.17795089-191.08258225 42.11924134 8.37900013-62.08499782 192.71152841z m154.25308631-0.93069562l-72.47670867-190.85013716 41.29793154-9.77549917 74.11841717 190.38433176-42.93964004 10.24130457zM395.34621456 692.15021121h227.82457038v32.58348065h-227.82457038z" fill="#F5D7A2" p-id="13897"></path></svg>