<?xml version="1.0" standalone="no"?><!DOCTYPE svg PUBLIC "-//W3C//DTD SVG 1.1//EN" "http://www.w3.org/Graphics/SVG/1.1/DTD/svg11.dtd"><svg t="1630549082179" class="icon" viewBox="0 0 1024 1024" version="1.1" xmlns="http://www.w3.org/2000/svg" p-id="11925" xmlns:xlink="http://www.w3.org/1999/xlink" width="200" height="200"><defs><style type="text/css"></style></defs><path d="M906.66666667 224h-57.6v646.4H580.26666667c0 38.4 25.6 70.4 57.6 70.4h268.8c32 0 57.6-32 57.6-70.4v-576c0-38.4-25.6-70.4-57.6-70.4z m0 0" p-id="11926"></path><path d="M725.33333334 76.8H123.73333334c-32 0-57.6 32-57.6 70.4v723.2c0 38.4 25.6 70.4 57.6 70.4H725.33333334c32 0 57.6-32 57.6-70.4V153.6c-6.4-44.8-32-76.8-57.6-76.8zM181.33333334 262.4h217.6v217.6H181.33333334V262.4z m435.2 499.2H181.33333334v-70.4h435.2v70.4z m0-140.8H181.33333334V550.4h435.2v70.4z m0-147.2H450.13333334V403.2h160l6.4 70.4z m0-140.8H450.13333334V262.4h160l6.4 70.4z m0 0" p-id="11927"></path></svg>