<?xml version="1.0" standalone="no"?><!DOCTYPE svg PUBLIC "-//W3C//DTD SVG 1.1//EN" "http://www.w3.org/Graphics/SVG/1.1/DTD/svg11.dtd"><svg t="1630549088291" class="icon" viewBox="0 0 1024 1024" version="1.1" xmlns="http://www.w3.org/2000/svg" p-id="12056" xmlns:xlink="http://www.w3.org/1999/xlink" width="200" height="200"><defs><style type="text/css"></style></defs><path d="M861 175.4c-9.9-6.4-21.9-8.6-33.4-6.1s-21.5 9.4-27.9 19.2c-0.1 0.2-0.2 0.4-0.4 0.6-13.4 21-7.6 48.9 13 62.9 4.8 3.3 119.8 82.8 119.8 280.6 0 198.2-110.2 277.8-114.6 280.8-20.7 14.1-26.3 42.3-12.5 63.2 13.5 20.6 41.2 26.3 61.8 12.8 0.1-0.1 0.3-0.2 0.4-0.2 6.3-4.2 154.6-107.4 154.6-356.6 0-249.8-154.2-352.9-160.8-357.2" p-id="12057"></path><path d="M721.3 309.2c-22.1-10.5-48.6-1-59.1 21.1l-0.1 0.2c-10.6 22.5-1.6 49.3 20.5 60.7 2.9 1.5 70.1 36.9 70.1 137.9 0 107.8-62.9 143.5-64.9 144.7-22.3 11.5-31.2 38.7-20.1 61.1 10.9 22.2 37.8 31.4 60 20.5l0.2-0.1c4.7-2.4 114.5-60.1 114.5-226.2-0.1-160.3-116.2-217.6-121.1-219.9M572.8 7.9c-11.5-5.1-41.7-13.5-74.9 16.7l-74.4 67.6-148.7 135.2H95.2C43.7 227.6 2 269.5 2 321.1v300.8c0 51.6 41.8 93.6 93.2 93.6h174.3L498 967.7c18.8 17 36.6 21.8 50.6 21.8 10.8 0 19.4-2.9 24.4-5.1 11.4-5.1 37.9-21.6 37.9-66.5V74.2c0-30.9-14.2-55.7-38.1-66.3z m-89.1 820.3L319.2 634c-8.6-7.8-19.9-12.2-31.6-12.2h-172c-11 0-20-8.9-20-20L95.2 341c0-11.1 8.9-20 20-20h166.5c1.1 0 2.2 0.1 3.3 0.3 13.9 2.1 28.1-2.2 38.5-11.6l99.9-90.9 60.2-54.7c12.8-11.7 33.5-2.6 33.5 14.8v634.5c0.1 17.3-20.5 26.5-33.4 14.8z" p-id="12058"></path></svg>