<?xml version="1.0" standalone="no"?><!DOCTYPE svg PUBLIC "-//W3C//DTD SVG 1.1//EN" "http://www.w3.org/Graphics/SVG/1.1/DTD/svg11.dtd"><svg t="1630549098632" class="icon" viewBox="0 0 1024 1024" version="1.1" xmlns="http://www.w3.org/2000/svg" p-id="12323" xmlns:xlink="http://www.w3.org/1999/xlink" width="200" height="200"><defs><style type="text/css"></style></defs><path d="M512 5.082074l389.745778 225.014519v450.029037l-53.854815 31.099259 109.605926 137.140148 1.479111 2.029037c12.439704 18.526815-0.720593 44.183704-23.703704 44.183704l-115.674074-0.018963-60.491852 100.048592a28.444444 28.444444 0 0 1-49.436444-1.327407l-82.413037-154.699852L512 905.140148l-108.088889-62.407111-83.493926 156.709926a28.444444 28.444444 0 0 1-47.93837 3.602963l-1.517037-2.275556L210.526815 900.740741H94.814815C71.812741 900.740741 58.671407 875.102815 71.111111 856.557037l1.479111-2.029037 111.066074-138.960593-61.402074-35.441777V230.096593L512 5.082074zM233.187556 744.675556l-79.246223 99.13837 72.628148 0.018963a28.444444 28.444444 0 0 1 22.679704 11.282963l1.668741 2.465185 42.837333 70.883556 59.278222-111.29363-119.845925-72.495407z m564.86874-4.740741l-79.208296 45.757629-41.79437 25.315556 59.297185 111.274667 42.81837-70.902519 1.668741-2.465185a28.444444 28.444444 0 0 1 22.679704-11.264h72.628148l-78.089482-97.697185zM512 70.788741L179.143111 262.940444v384.322371l60.795259 35.081481 1.365334 0.758519 1.706666 1.042963L512 839.433481l179.029333-103.386074 97.754074-59.126518c3.584-2.161778 7.471407-3.451259 11.396741-3.90637l44.657778-25.751704V262.940444L512 70.769778z m128.170667 274.735407l51.01037 25.220741-136.685037 276.328296a47.407407 47.407407 0 0 1-83.437037 2.844445l-1.554963-2.844445-136.666074-276.328296 50.991407-25.220741L512 604.615111l128.170667-259.109926z" p-id="12324"></path></svg>
